<svg width="14" height="15" viewBox="0 0 14 15" fill="none" xmlns="http://www.w3.org/2000/svg">
<path d="M6.54314 1.58066C6.85122 1.26471 7.21898 1.01308 7.62507 0.840369C8.03116 0.667654 8.46751 0.577293 8.90879 0.574528C9.35008 0.571763 9.78752 0.656649 10.1957 0.824261C10.604 0.991874 10.9748 1.23888 11.2869 1.55094C11.5989 1.863 11.8458 2.23392 12.0134 2.64217C12.1809 3.05041 12.2658 3.48787 12.2629 3.92915C12.2601 4.37044 12.1697 4.80677 11.9969 5.21284C11.8241 5.6189 11.5725 5.98662 11.2565 6.29466L6.07181 11.48C5.88667 11.6682 5.6661 11.8179 5.42281 11.9205C5.17953 12.023 4.91835 12.0764 4.65434 12.0775C4.39033 12.0786 4.12871 12.0274 3.88457 11.9269C3.64044 11.8264 3.41862 11.6786 3.23191 11.4919C3.0452 11.3052 2.8973 11.0834 2.79673 10.8393C2.69617 10.5952 2.64493 10.3336 2.64597 10.0696C2.64702 9.8056 2.70032 9.5444 2.80282 9.30109C2.90531 9.05779 3.05496 8.83718 3.24314 8.652L8.42847 3.46666L9.37114 4.40933L4.18581 9.59466C4.12213 9.65616 4.07134 9.72972 4.03641 9.81106C4.00147 9.8924 3.98307 9.97988 3.98231 10.0684C3.98154 10.1569 3.9984 10.2447 4.03192 10.3266C4.06545 10.4086 4.11495 10.483 4.17754 10.5456C4.24014 10.6082 4.31457 10.6577 4.3965 10.6912C4.47843 10.7247 4.56622 10.7416 4.65474 10.7408C4.74326 10.7401 4.83074 10.7217 4.91208 10.6867C4.99341 10.6518 5.06698 10.601 5.12847 10.5373L10.3145 5.352C10.5002 5.16626 10.6475 4.94577 10.7481 4.70309C10.8486 4.46042 10.9003 4.20033 10.9003 3.93766C10.9003 3.675 10.8486 3.4149 10.7481 3.17223C10.6475 2.92956 10.5002 2.70906 10.3145 2.52333C10.1287 2.3376 9.90824 2.19027 9.66557 2.08975C9.4229 1.98923 9.16281 1.93749 8.90014 1.93749C8.63747 1.93749 8.37738 1.98923 8.13471 2.08975C7.89204 2.19027 7.67154 2.3376 7.48581 2.52333L2.30047 7.70933C1.69328 8.338 1.3573 9.18001 1.36489 10.054C1.37249 10.928 1.72305 11.764 2.34108 12.3821C2.9591 13.0001 3.79515 13.3506 4.66914 13.3582C5.54312 13.3658 6.38513 13.0299 7.01381 12.4227L12.6711 6.766L13.6138 7.70933L7.95714 13.366C7.08192 14.2412 5.89488 14.7329 4.65714 14.7329C3.4194 14.7329 2.23235 14.2412 1.35714 13.366C0.481925 12.4908 -0.00976562 11.3037 -0.00976562 10.066C-0.00976563 8.82826 0.481925 7.64121 1.35714 6.766L6.54314 1.58066Z" fill="#926DB4"/>
</svg>
