<svg width="100" height="100" viewBox="0 0 100 100" fill="none" xmlns="http://www.w3.org/2000/svg">
<path d="M33.1292 9.42708L33.1667 9.375C42.0521 10.1667 50.9979 13.3437 49.5083 24.1875C38.8792 26.7708 34.8146 18.1896 33.1292 9.42708ZM66.825 59.2708C66.825 68.5667 59.2917 76.1042 50 76.1042C40.7083 76.1042 33.175 68.5667 33.175 59.2708C33.175 49.975 40.7083 42.4396 50 42.4396C59.2917 42.4396 66.825 49.9729 66.825 59.2708ZM81.3417 59.2708C81.3417 76.5875 67.3104 90.625 50 90.625C32.6896 90.625 18.6583 76.5875 18.6583 59.2708C18.6583 41.9542 32.6896 27.9167 50 27.9167C67.3104 27.9167 81.3417 41.9542 81.3417 59.2708Z" stroke="white" stroke-width="5.5" stroke-linecap="round" stroke-linejoin="round"/>
</svg>
