<svg width="16" height="16" viewBox="0 0 16 16" fill="none" xmlns="http://www.w3.org/2000/svg">
<path fill-rule="evenodd" clip-rule="evenodd" d="M7.99992 1.33333C11.6818 1.33333 14.6666 4.3181 14.6666 8C14.6666 11.6819 11.6818 14.6667 7.99992 14.6667C4.31802 14.6667 1.33325 11.6819 1.33325 8C1.33325 4.3181 4.31802 1.33333 7.99992 1.33333ZM7.99992 2.66667C5.0544 2.66667 2.66659 5.05448 2.66659 8C2.66659 10.9455 5.0544 13.3333 7.99992 13.3333C10.9454 13.3333 13.3333 10.9455 13.3333 8C13.3333 5.05448 10.9454 2.66667 7.99992 2.66667ZM7.99992 4.66667C8.36811 4.66667 8.66658 4.96514 8.66658 5.33333V7.33266L10.6666 7.33333C11.0348 7.33333 11.3333 7.63181 11.3333 8C11.3333 8.36819 11.0348 8.66667 10.6666 8.66667L8.66658 8.666V10.6667C8.66658 11.0349 8.36811 11.3333 7.99992 11.3333C7.63173 11.3333 7.33325 11.0349 7.33325 10.6667V8.666L5.33325 8.66667C4.96506 8.66667 4.66658 8.36819 4.66658 8C4.66658 7.63181 4.96506 7.33333 5.33325 7.33333L7.33325 7.33266V5.33333C7.33325 4.96514 7.63173 4.66667 7.99992 4.66667Z" fill="white"/>
</svg>
