<svg width="68" height="84" viewBox="0 0 68 84" fill="none" xmlns="http://www.w3.org/2000/svg">
<path d="M2.66663 26.3334C2.66663 15.257 2.66663 9.71496 6.10938 6.27612C9.54821 2.83337 15.0903 2.83337 26.1666 2.83337H41.8333C52.9096 2.83337 58.4517 2.83337 61.8905 6.27612C65.3333 9.71496 65.3333 15.257 65.3333 26.3334V57.6667C65.3333 68.743 65.3333 74.2851 61.8905 77.724C58.4517 81.1667 52.9096 81.1667 41.8333 81.1667H26.1666C15.0903 81.1667 9.54821 81.1667 6.10938 77.724C2.66663 74.2851 2.66663 68.743 2.66663 57.6667V26.3334Z" stroke="white" stroke-width="5" stroke-linejoin="round"/>
<path d="M64.9338 57.6667H17.9338C14.2913 57.6667 12.47 57.6667 10.9739 58.0662C8.98151 58.6005 7.1649 59.6498 5.70666 61.1088C4.24841 62.5677 3.19994 64.3848 2.66663 66.3774" stroke="white" stroke-width="5" stroke-linejoin="round"/>
<path d="M18.3333 22.4167H49.6666M18.3333 36.1251H37.9166" stroke="white" stroke-width="5" stroke-linecap="round" stroke-linejoin="round"/>
</svg>
