<svg width="90" height="90" viewBox="0 0 90 90" fill="none" xmlns="http://www.w3.org/2000/svg">
<path d="M7.85439 41.5744C7.80943 41.0566 7.87259 40.5351 8.03986 40.0431C8.20713 39.551 8.47486 39.0991 8.82606 38.716C9.17725 38.3329 9.60425 38.0269 10.0799 37.8176C10.5556 37.6083 11.0697 37.5001 11.5894 37.5H18.75C19.7446 37.5 20.6984 37.8951 21.4017 38.5983C22.1049 39.3016 22.5 40.2554 22.5 41.25V76.875C22.5 77.8695 22.1049 78.8234 21.4017 79.5266C20.6984 80.2299 19.7446 80.625 18.75 80.625H14.6888C13.7502 80.6252 12.8457 80.2735 12.1538 79.6393C11.4619 79.005 11.0331 78.1344 10.9519 77.1994L7.85439 41.5744ZM33.75 40.0781C33.75 38.5106 34.725 37.1081 36.1406 36.4406C39.2325 34.9819 44.4994 32.0512 46.875 28.0894C49.9369 22.9819 50.5144 13.755 50.6081 11.6419C50.6213 11.3456 50.6138 11.0494 50.6531 10.7569C51.1613 7.09499 58.2281 11.3719 60.9375 15.8944C62.4094 18.3469 62.5969 21.57 62.4431 24.0881C62.2763 26.7806 61.4869 29.3812 60.7125 31.965L59.0625 37.4719H79.4194C79.9988 37.4718 80.5703 37.606 81.0891 37.864C81.6079 38.1219 82.0599 38.4966 82.4096 38.9585C82.7593 39.4205 82.9972 39.9572 83.1046 40.5265C83.212 41.0959 83.1861 41.6824 83.0288 42.24L72.96 77.895C72.7377 78.6814 72.2647 79.3736 71.6128 79.8664C70.9609 80.3592 70.1659 80.6256 69.3488 80.625H37.5C36.5055 80.625 35.5516 80.2299 34.8484 79.5266C34.1451 78.8234 33.75 77.8695 33.75 76.875V40.0781Z" stroke="white" stroke-width="6" stroke-linecap="round" stroke-linejoin="round"/>
</svg>
