<svg width="12" height="10" viewBox="0 0 12 10" fill="none" xmlns="http://www.w3.org/2000/svg">
<path fill-rule="evenodd" clip-rule="evenodd" d="M7.99984 7C8.49334 7 8.92422 7.26811 9.15477 7.66662L10.6665 7.66667C11.0347 7.66667 11.3332 7.96514 11.3332 8.33333C11.3332 8.70152 11.0347 9 10.6665 9L9.15438 9.00072C8.92374 9.39886 8.49306 9.66667 7.99984 9.66667C7.50661 9.66667 7.07594 9.39886 6.8453 9.00072L1.33317 9C0.964981 9 0.666504 8.70152 0.666504 8.33333C0.666504 7.96514 0.964981 7.66667 1.33317 7.66667L6.84491 7.66662C7.07545 7.26811 7.50634 7 7.99984 7ZM3.99984 3.66667C4.49334 3.66667 4.92422 3.93478 5.15477 4.33328L10.6665 4.33333C11.0347 4.33333 11.3332 4.63181 11.3332 5C11.3332 5.36819 11.0347 5.66667 10.6665 5.66667L5.15438 5.66738C4.92374 6.06552 4.49306 6.33333 3.99984 6.33333C3.50661 6.33333 3.07594 6.06552 2.8453 5.66738L1.33317 5.66667C0.964981 5.66667 0.666504 5.36819 0.666504 5C0.666504 4.63181 0.964981 4.33333 1.33317 4.33333L2.84491 4.33328C3.07545 3.93478 3.50634 3.66667 3.99984 3.66667ZM7.99984 0.333332C8.49334 0.333332 8.92422 0.601443 9.15477 0.99995L10.6665 0.999999C11.0347 0.999999 11.3332 1.29848 11.3332 1.66667C11.3332 2.03486 11.0347 2.33333 10.6665 2.33333L9.15438 2.33405C8.92374 2.73219 8.49306 3 7.99984 3C7.50661 3 7.07594 2.73219 6.8453 2.33405L1.33317 2.33333C0.964981 2.33333 0.666504 2.03486 0.666504 1.66667C0.666504 1.29848 0.964981 0.999999 1.33317 0.999999L6.84491 0.99995C7.07545 0.601443 7.50634 0.333332 7.99984 0.333332Z" fill="white"/>
</svg>
