<svg width="21" height="21" viewBox="0 0 21 21" fill="none" xmlns="http://www.w3.org/2000/svg">
<path d="M10.5002 0.0833359C16.2533 0.0833359 20.9168 4.74688 20.9168 10.5C20.9168 16.2531 16.2533 20.9167 10.5002 20.9167C4.74704 20.9167 0.0834961 16.2531 0.0834961 10.5C0.0834961 4.74688 4.74704 0.0833359 10.5002 0.0833359ZM8.60745 14.9875C8.48534 15.1096 8.41674 15.2752 8.41674 15.4479C8.41674 15.6206 8.48534 15.7862 8.60745 15.9083C8.72956 16.0304 8.89518 16.099 9.06787 16.099C9.24056 16.099 9.40618 16.0304 9.52829 15.9083L14.4762 10.9604C14.5367 10.9 14.5846 10.8282 14.6174 10.7492C14.6501 10.6702 14.667 10.5855 14.667 10.5C14.667 10.4145 14.6501 10.3298 14.6174 10.2508C14.5846 10.1718 14.5367 10.1 14.4762 10.0396L9.52829 5.09167C9.40618 4.96956 9.24056 4.90096 9.06787 4.90096C8.89518 4.90096 8.72956 4.96956 8.60745 5.09167C8.48534 5.21378 8.41674 5.3794 8.41674 5.55209C8.41674 5.72478 8.48534 5.89039 8.60745 6.0125L13.095 10.5L8.60745 14.9875Z" fill="#01225E"/>
</svg>
