<svg width="90" height="90" viewBox="0 0 90 90" fill="none" xmlns="http://www.w3.org/2000/svg">
<path d="M10.3125 45H79.6875M72.1875 10.3125H17.8125C15.8234 10.3125 13.9157 11.1027 12.5092 12.5092C11.1027 13.9157 10.3125 15.8234 10.3125 17.8125V72.1875C10.3125 74.1766 11.1027 76.0843 12.5092 77.4908C13.9157 78.8973 15.8234 79.6875 17.8125 79.6875H72.1875C74.1766 79.6875 76.0843 78.8973 77.4908 77.4908C78.8973 76.0843 79.6875 74.1766 79.6875 72.1875V17.8125C79.6875 15.8234 78.8973 13.9157 77.4908 12.5092C76.0843 11.1027 74.1766 10.3125 72.1875 10.3125Z" stroke="white" stroke-width="5.5" stroke-linecap="round" stroke-linejoin="round"/>
<path d="M45 60.7894H44.8125C44.3756 58.7517 43.2 56.9477 41.5123 55.7251C39.8245 54.5026 37.744 53.9479 35.6716 54.1679C33.5992 54.388 31.6816 55.3672 30.2882 56.9169C28.8948 58.4666 28.1243 60.4772 28.125 62.5613C28.1333 64.64 28.9083 66.6427 30.3017 68.1854C31.695 69.7282 33.6086 70.7026 35.6758 70.9218C37.7431 71.1411 39.8185 70.5898 41.5044 69.3737C43.1904 68.1576 44.3683 66.3621 44.8125 64.3313H45V79.6875M45 60.7875V45V29.2106H45.1875C45.6244 31.2483 46.8 33.0523 48.4877 34.2749C50.1755 35.4974 52.256 36.0521 54.3284 35.8321C56.4008 35.612 58.3184 34.6328 59.7118 33.0831C61.1052 31.5334 61.8757 29.5228 61.875 27.4387C61.8667 25.36 61.0917 23.3573 59.6983 21.8146C58.305 20.2718 56.3914 19.2974 54.3242 19.0782C52.2569 18.8589 50.1815 19.4102 48.4956 20.6263C46.8096 21.8424 45.6317 23.6379 45.1875 25.6687H45V10.3125" stroke="white" stroke-width="1.5" stroke-linecap="round" stroke-linejoin="round"/>
</svg>
