<svg width="73" height="71" viewBox="0 0 73 71" fill="none" xmlns="http://www.w3.org/2000/svg">
<path d="M70.7022 35.6256C70.7022 51.4805 70.7021 59.4079 65.7748 64.3319C60.8542 69.2592 52.9234 69.2592 37.0685 69.2592C21.2136 69.2592 13.2862 69.2592 8.35884 64.3319C3.43488 59.4113 3.43488 51.4805 3.43488 35.6256C3.43488 19.7707 3.43488 11.8432 8.35884 6.9159C13.2895 1.99194 21.2136 1.99194 37.0685 1.99194C52.9234 1.99194 60.8509 1.99194 65.7748 6.9159C69.0507 10.1918 70.1472 14.7963 70.5172 22.1721" stroke="#2D6EE2" stroke-width="3" stroke-linecap="round"/>
<path d="M20.3841 38.5795C22.1805 37.5423 23.2269 35.6129 23.521 33.5591C23.9736 30.3522 25.0938 27.2759 26.8091 24.5288C27.9264 22.7426 28.5878 20.661 28.2864 18.5795C28.0763 17.1206 27.5897 15.7152 26.8526 14.4388L26.0381 13.028C25.7822 12.5847 25.7128 12.0578 25.8453 11.5634C25.9778 11.0689 26.3013 10.6474 26.7446 10.3914C28.0745 9.62356 29.655 9.41548 31.1384 9.81295C32.6218 10.2104 33.8865 11.1809 34.6544 12.5108C36.1367 15.0783 36.9611 17.8444 37.1838 20.6131C37.3089 22.199 39.0719 23.3327 40.4492 22.5375M40.4492 22.5375L47.4162 18.5151C49.7028 17.1949 52.644 17.5591 54.2007 19.6944C54.8447 20.5765 55.4464 21.502 56.0057 22.4707C59.5359 28.564 60.8681 35.6842 59.7795 42.6415C59.535 44.215 58.5178 45.5363 57.1405 46.3315L48.1899 51.499C47.1125 52.122 45.9417 52.5672 44.7225 52.8175L36.4441 54.5066C35.225 54.7569 34.0541 55.2021 32.9767 55.825L29.3751 57.9044C29.8242 58.2533 30.283 58.5847 30.7515 58.8986C31.7052 59.5366 31.7331 61.0004 30.7413 61.573L28.7177 62.7414C26.7363 63.8853 24.2333 63.7911 22.5624 62.23C20.3277 60.1421 18.4156 57.734 16.8886 55.0843C14.8903 51.6231 13.6395 47.9383 13.0815 44.2131C12.7676 42.0943 13.9231 40.081 15.7796 39.0092L18.1264 37.6542C19.1784 37.0469 20.5022 37.9348 20.4761 39.1504C20.3819 43.3829 21.4547 47.5596 23.577 51.2227C25.0632 53.8015 27.0326 56.0697 29.3773 57.9031M40.4492 22.5375L35.4301 25.4352" stroke="#2D6EE2" stroke-width="3" stroke-linecap="round" stroke-linejoin="round"/>
</svg>
