<svg width="12" height="12" viewBox="0 0 12 12" fill="none" xmlns="http://www.w3.org/2000/svg">
<path d="M6.66699 0.666668C9.61225 0.666844 11.9998 3.05441 12 5.99968C12 8.94509 9.61236 11.3335 6.66699 11.3337C6.2988 11.3337 6 11.0349 6 10.6667C6 10.2985 6.2988 9.99968 6.66699 9.99968C8.87598 9.9995 10.667 8.20871 10.667 5.99968C10.6668 3.79079 8.87587 1.99985 6.66699 1.99968C4.45796 1.99968 2.66717 3.79069 2.66699 5.99968C2.66699 6.51581 2.76494 7.01728 2.95215 7.48503L5 6.66667L4 10.6667L0 8.66667L1.71387 7.98014C1.46399 7.35565 1.33301 6.68615 1.33301 5.99968C1.33318 3.05431 3.72158 0.666668 6.66699 0.666668Z" fill="white"/>
</svg>
