<svg width="26" height="26" viewBox="0 0 26 26" fill="none" xmlns="http://www.w3.org/2000/svg">
<path d="M13 25.5C9.68479 25.5 6.50537 24.183 4.16116 21.8388C1.81696 19.4946 0.499999 16.3152 0.499999 13C0.499999 9.68479 1.81696 6.50537 4.16117 4.16116C6.50537 1.81696 9.68479 0.499999 13 0.499999C16.3152 0.499999 19.4946 1.81696 21.8388 4.16116C24.183 6.50537 25.5 9.68479 25.5 13C25.5 16.3152 24.183 19.4946 21.8388 21.8388C19.4946 24.183 16.3152 25.5 13 25.5ZM12.755 18.885C12.8714 18.7689 12.9638 18.6309 13.0268 18.4791C13.0898 18.3272 13.1222 18.1644 13.1222 18C13.1222 17.8356 13.0898 17.6728 13.0268 17.5209C12.9638 17.3691 12.8714 17.2311 12.755 17.115L9.89 14.25L19.25 14.25C19.5815 14.25 19.8995 14.1183 20.1339 13.8839C20.3683 13.6495 20.5 13.3315 20.5 13C20.5 12.6685 20.3683 12.3505 20.1339 12.1161C19.8995 11.8817 19.5815 11.75 19.25 11.75L9.89 11.75L12.755 8.885C12.9897 8.65061 13.1217 8.33259 13.1219 8.00088C13.1222 7.66918 12.9906 7.35096 12.7563 7.11625C12.5219 6.88153 12.2038 6.74954 11.8721 6.7493C11.5404 6.74907 11.2222 6.88061 10.9875 7.115L5.9875 12.115C5.87109 12.2311 5.77873 12.3691 5.71572 12.5209C5.6527 12.6728 5.62027 12.8356 5.62027 13C5.62027 13.1644 5.6527 13.3272 5.71572 13.4791C5.77873 13.6309 5.87109 13.7689 5.9875 13.885L10.9875 18.885C11.2219 19.1193 11.5398 19.251 11.8712 19.251C12.2027 19.251 12.5206 19.1193 12.755 18.885Z" fill="#029FD3"/>
</svg>
